{
  "accessors": [
    {
      "bufferView": 2,
      "componentType": 5126,
      "count": 65532,
      "max": [
        742.9182739257813,
        10.217144012451172,
        939.6064453125
      ],
      "min": [
        -539.2980346679688,
        -2072.478515625,
        -318.63330078125
      ],
      "type": "VEC3"
    },
    {
      "bufferView": 2,
      "byteOffset": 786384,
      "componentType": 5126,
      "count": 65532,
      "max": [
        0.999998927116394,
        0.999997079372406,
        0.9999748468399048
      ],
      "min": [
        -0.9999914765357971,
        -0.9999815821647644,
        -0.9999618530273438
      ],
      "type": "VEC3"
    },
    {
      "bufferView": 1,
      "componentType": 5126,
      "count": 65532,
      "max": [
        0.9962959885597229,
        0.9023619890213013
      ],
      "min": [
        0.000707999977748841,
        0.0002680000034160912
      ],
      "type": "VEC2"
    },
    {
      "bufferView": 0,
      "componentType": 5125,
      "count": 290151,
      "type": "SCALAR"
    },
    {
      "bufferView": 2,
      "byteOffset": 1572768,
      "componentType": 5126,
      "count": 65532,
      "max": [
        740.5452880859375,
        10.188608169555664,
        1026.08544921875
      ],
      "min": [
        -503.534912109375,
        -2057.05908203125,
        -318.63330078125
      ],
      "type": "VEC3"
    },
    {
      "bufferView": 2,
      "byteOffset": 2359152,
      "componentType": 5126,
      "count": 65532,
      "max": [
        0.9999691843986511,
        0.9999955296516418,
        0.9999595880508423
      ],
      "min": [
        -0.9999417662620544,
        -0.9999862909317017,
        -0.9999890327453613
      ],
      "type": "VEC3"
    },
    {
      "bufferView": 1,
      "byteOffset": 524256,
      "componentType": 5126,
      "count": 65532,
      "max": [
        0.99754798412323,
        0.9426910281181335
      ],
      "min": [
        0.08490300178527832,
        0.0003239999932702631
      ],
      "type": "VEC2"
    },
    {
      "bufferView": 0,
      "byteOffset": 1160604,
      "componentType": 5125,
      "count": 317706,
      "type": "SCALAR"
    },
    {
      "bufferView": 2,
      "byteOffset": 3145536,
      "componentType": 5126,
      "count": 65532,
      "max": [
        730.494384765625,
        10.481085777282715,
        892.8709106445313
      ],
      "min": [
        -576.25439453125,
        -2069.6953125,
        -243.03712463378906
      ],
      "type": "VEC3"
    },
    {
      "bufferView": 2,
      "byteOffset": 3931920,
      "componentType": 5126,
      "count": 65532,
      "max": [
        0.9999897480010986,
        0.9999993443489075,
        0.9999995827674866
      ],
      "min": [
        -0.9999995231628418,
        -0.9999979734420776,
        -0.9999274611473083
      ],
      "type": "VEC3"
    },
    {
      "bufferView": 1,
      "byteOffset": 1048512,
      "componentType": 5126,
      "count": 65532,
      "max": [
        0.9809960126876831,
        0.9992920160293579
      ],
      "min": [
        0.06509199738502502,
        0.0003319999959785491
      ],
      "type": "VEC2"
    },
    {
      "bufferView": 0,
      "byteOffset": 2431428,
      "componentType": 5125,
      "count": 332985,
      "type": "SCALAR"
    },
    {
      "bufferView": 2,
      "byteOffset": 4718304,
      "componentType": 5126,
      "count": 65532,
      "max": [
        686.7640380859375,
        10.448551177978516,
        1025.35107421875
      ],
      "min": [
        -575.2174072265625,
        -2258.767578125,
        -288.8820495605469
      ],
      "type": "VEC3"
    },
    {
      "bufferView": 2,
      "byteOffset": 5504688,
      "componentType": 5126,
      "count": 65532,
      "max": [
        0.9998668432235718,
        0.9999996423721313,
        0.999980092048645
      ],
      "min": [
        -0.9999732375144958,
        -0.9999936819076538,
        -0.9999890327453613
      ],
      "type": "VEC3"
    },
    {
      "bufferView": 1,
      "byteOffset": 1572768,
      "componentType": 5126,
      "count": 65532,
      "max": [
        0.9979739785194397,
        0.9992920160293579
      ],
      "min": [
        0.000707999977748841,
        0.1075109988451004
      ],
      "type": "VEC2"
    },
    {
      "bufferView": 0,
      "byteOffset": 3763368,
      "componentType": 5125,
      "count": 340401,
      "type": "SCALAR"
    },
    {
      "bufferView": 2,
      "byteOffset": 6291072,
      "componentType": 5126,
      "count": 43368,
      "max": [
        640.9019775390625,
        -101.65040588378906,
        833.4254150390625
      ],
      "min": [
        -471.50555419921875,
        -2076.64208984375,
        -306.2638854980469
      ],
      "type": "VEC3"
    },
    {
      "bufferView": 2,
      "byteOffset": 6811488,
      "componentType": 5126,
      "count": 43368,
      "max": [
        0.9999992847442627,
        0.9999678134918213,
        0.9999425411224365
      ],
      "min": [
        -0.9998937249183655,
        -0.9999844431877136,
        -0.9999618530273438
      ],
      "type": "VEC3"
    },
    {
      "bufferView": 1,
      "byteOffset": 2097024,
      "componentType": 5126,
      "count": 43368,
      "max": [
        0.9803979992866516,
        0.887503981590271
      ],
      "min": [
        0.013442999683320522,
        0.0019069999689236283
      ],
      "type": "VEC2"
    },
    {
      "bufferView": 0,
      "byteOffset": 5124972,
      "componentType": 5125,
      "count": 218745,
      "type": "SCALAR"
    }
  ],
  "asset": {
    "extras": {
      "author": "Laser Design (https://sketchfab.com/Laserdesign)",
      "license": "CC-BY-NC-4.0 (http://creativecommons.org/licenses/by-nc/4.0/)",
      "source": "https://sketchfab.com/3d-models/christmas-tree-3d-scan-df4028bb6eec4cad8a813dfa38e88d8d",
      "title": "Christmas Tree 3D Scan"
    },
    "generator": "Sketchfab-12.66.0",
    "version": "2.0"
  },
  "bufferViews": [
    {
      "buffer": 0,
      "byteLength": 5999952,
      "name": "floatBufferViews",
      "target": 34963
    },
    {
      "buffer": 0,
      "byteLength": 2443968,
      "byteOffset": 5999952,
      "byteStride": 8,
      "name": "floatBufferViews",
      "target": 34962
    },
    {
      "buffer": 0,
      "byteLength": 7331904,
      "byteOffset": 8443920,
      "byteStride": 12,
      "name": "floatBufferViews",
      "target": 34962
    }
  ],
  "buffers": [
    {
      "byteLength": 15775824,
      "uri": "scene.bin"
    }
  ],
  "images": [
    {
      "uri": "textures/material_0_baseColor.jpeg"
    }
  ],
  "materials": [
    {
      "doubleSided": true,
      "name": "material_0",
      "pbrMetallicRoughness": {
        "baseColorTexture": {
          "index": 0
        },
        "metallicFactor": 0.0,
        "roughnessFactor": 0.8458460366
      }
    }
  ],
  "meshes": [
    {
      "name": "Object_0",
      "primitives": [
        {
          "attributes": {
            "NORMAL": 1,
            "POSITION": 0,
            "TEXCOORD_0": 2
          },
          "indices": 3,
          "material": 0,
          "mode": 4
        }
      ]
    },
    {
      "name": "Object_1",
      "primitives": [
        {
          "attributes": {
            "NORMAL": 5,
            "POSITION": 4,
            "TEXCOORD_0": 6
          },
          "indices": 7,
          "material": 0,
          "mode": 4
        }
      ]
    },
    {
      "name": "Object_2",
      "primitives": [
        {
          "attributes": {
            "NORMAL": 9,
            "POSITION": 8,
            "TEXCOORD_0": 10
          },
          "indices": 11,
          "material": 0,
          "mode": 4
        }
      ]
    },
    {
      "name": "Object_3",
      "primitives": [
        {
          "attributes": {
            "NORMAL": 13,
            "POSITION": 12,
            "TEXCOORD_0": 14
          },
          "indices": 15,
          "material": 0,
          "mode": 4
        }
      ]
    },
    {
      "name": "Object_4",
      "primitives": [
        {
          "attributes": {
            "NORMAL": 17,
            "POSITION": 16,
            "TEXCOORD_0": 18
          },
          "indices": 19,
          "material": 0,
          "mode": 4
        }
      ]
    }
  ],
  "nodes": [
    {
      "children": [
        1
      ],
      "matrix": [
        1.0,
        0.0,
        0.0,
        0.0,
        0.0,
        -1.0,
        -2.220446049250313e-16,
        0.0,
        0.0,
        2.220446049250313e-16,
        -1.0,
        0.0,
        0.0,
        -770.4190673828128,
        1477.8704833984373,
        1.0
      ],
      "name": "Sketchfab_model"
    },
    {
      "children": [
        2,
        3,
        4,
        5,
        6
      ],
      "name": "Christmas Tree Color mm.obj.cleaner.materialmerger.gles"
    },
    {
      "mesh": 0,
      "name": "Object_2"
    },
    {
      "mesh": 1,
      "name": "Object_3"
    },
    {
      "mesh": 2,
      "name": "Object_4"
    },
    {
      "mesh": 3,
      "name": "Object_5"
    },
    {
      "mesh": 4,
      "name": "Object_6"
    }
  ],
  "samplers": [
    {
      "magFilter": 9729,
      "minFilter": 9987,
      "wrapS": 10497,
      "wrapT": 10497
    }
  ],
  "scene": 0,
  "scenes": [
    {
      "name": "Sketchfab_Scene",
      "nodes": [
        0
      ]
    }
  ],
  "textures": [
    {
      "sampler": 0,
      "source": 0
    }
  ]
}
